G04 DipTrace 3.3.1.3*
G04 Bottom.gbr*
%MOMM*%
G04 #@! TF.FileFunction,Copper,L2,Bot*
G04 #@! TF.Part,Single*
%AMOUTLINE0*
4,1,20,
1.2,0.0,
1.14127,-0.30902,
0.97082,-0.58779,
0.70534,-0.80902,
0.37082,-0.95106,
0.0,-1.0,
-0.37082,-0.95106,
-0.70534,-0.80902,
-0.97082,-0.58779,
-1.14127,-0.30902,
-1.2,0.0,
-1.14127,0.30902,
-0.97082,0.58779,
-0.70534,0.80902,
-0.37082,0.95106,
0.0,1.0,
0.37082,0.95106,
0.70534,0.80902,
0.97082,0.58779,
1.14127,0.30902,
1.2,0.0,
0*%
%AMOUTLINE3*
4,1,8,
-0.75,0.5,
-1.0,0.25,
-1.0,-0.25,
-0.75,-0.5,
0.75,-0.5,
1.0,-0.25,
1.0,0.25,
0.75,0.5,
-0.75,0.5,
0*%
G04 #@! TA.AperFunction,ComponentPad*
%ADD14C,1.5*%
G04 #@! TA.AperFunction,Conductor*
%ADD17C,1.0*%
G04 #@! TA.AperFunction,ComponentPad*
%ADD18C,2.0*%
%ADD19C,2.0*%
%ADD20R,1.7X2.0*%
%ADD23O,2.0X1.0*%
%ADD24R,1.6X1.8*%
G04 #@! TA.AperFunction,ViaPad*
%ADD27C,1.3*%
%ADD28C,1.016*%
G04 #@! TA.AperFunction,ComponentPad*
%ADD59OUTLINE0*%
%ADD62OUTLINE3*%
%FSLAX35Y35*%
G04*
G71*
G90*
G75*
G01*
G04 Bottom*
%LPD*%
X1162627Y-3477027D2*
D14*
Y-3564252D1*
X222712D1*
X123220Y-3464760D1*
Y-3481190D1*
X1162627Y-3477027D2*
X1142002D1*
Y-3564252D1*
X2774686D1*
X3129780Y-3919347D1*
X3149577Y-3899550D1*
X4528430D1*
X4727267Y-3700713D1*
X4737267Y-2460713D2*
D17*
X3840533Y-3359607D1*
X2672540Y-3226673D2*
X2693423Y-3247557D1*
X3517590D1*
X2172897Y-1896997D2*
Y-2122173D1*
Y-2727030D1*
X2672540Y-3226673D1*
X3517590Y-3247557D2*
X4554433Y-2210713D1*
X4737267D1*
X1162627Y-1947027D2*
X1337773Y-2122173D1*
X2172897D1*
X1162627Y-1947027D2*
X1154820Y-1939220D1*
X921103D1*
X123220Y-1951190D2*
X109871Y-1937841D1*
X-115348D1*
X-395348D2*
X-408697Y-1951190D1*
X-636780D1*
X-395348Y-1937841D2*
X-391062Y-1942127D1*
Y-2353763D1*
X63242Y-2808067D1*
X728472D1*
X1073659Y-3153253D1*
X1669773D1*
X641103Y-1939220D2*
X633296Y-1947027D1*
X402627D1*
X641103Y-1939220D2*
Y-2185268D1*
X1029745Y-2573910D1*
X1669773D1*
X4737267Y-4200713D2*
D14*
X4688013Y-4249967D1*
X1125876D1*
X982106Y-4106196D1*
D27*
X2672540Y-3226673D3*
X3517590Y-3247557D3*
D28*
X3840533Y-3359607D3*
D18*
X3129780Y-3919347D3*
X1832913D3*
D19*
X4737267Y-2210713D3*
Y-2460713D3*
Y-4200713D3*
X4727267Y-3700713D3*
D59*
X402627Y-3217027D3*
X1162627Y-3477027D3*
D14*
Y-1947027D3*
X402627D3*
D59*
X-636780Y-3221190D3*
X123220Y-3481190D3*
D14*
Y-1951190D3*
X-636780D3*
D20*
X1918897Y-1896997D3*
D18*
X2172897D3*
X2426897D3*
X2680897D3*
X2934897D3*
X3188897D3*
X3442897D3*
X3696897D3*
X3950897D3*
X4204897D3*
X4458897D3*
X4712897D3*
D62*
X1669773Y-2319910D3*
D23*
Y-2446910D3*
Y-2573910D3*
D62*
Y-2899253D3*
D23*
Y-3026253D3*
Y-3153253D3*
D24*
X-115348Y-1937841D3*
X-395348D3*
X921103Y-1939220D3*
X641103D3*
D14*
X982106Y-4106196D3*
M02*
