G04 DipTrace 3.3.1.3*
G04 BottomSilk.gbr*
%MOMM*%
G04 #@! TF.FileFunction,Legend,Bot*
G04 #@! TF.Part,Single*
%ADD10C,0.25*%
%ADD55C,0.19608*%
%ADD56C,0.22222*%
%ADD57C,0.15686*%
%ADD58C,0.23529*%
%FSLAX35Y35*%
G04*
G71*
G90*
G75*
G01*
G04 BotSilk*
%LPD*%
X-225428Y-1857921D2*
D10*
X-285268D1*
X-225428Y-2017761D2*
X-285268D1*
X-244260D2*
Y-1857921D1*
X-225340Y-2017761D2*
Y-1857921D1*
X811023Y-1859300D2*
X751183D1*
X811023Y-2019140D2*
X751183D1*
X792191D2*
Y-1859300D1*
X811111Y-2019140D2*
Y-1859300D1*
X3846573Y-2153427D2*
X4096573D1*
Y-3153427D1*
X3846573D1*
Y-2153427D1*
X4096573D2*
X4346573D1*
Y-3153427D1*
X4096573D1*
Y-2153427D1*
X3846573Y-3153427D2*
X4096573D1*
Y-4153427D1*
X3846573D1*
Y-3153427D1*
X4096573D2*
X4346573D1*
Y-4153427D1*
X4096573D1*
Y-3153427D1*
X3597610Y-2153527D2*
X3847610D1*
Y-4153527D1*
X3597610D1*
Y-2153527D1*
X-166892Y-2091821D2*
D55*
Y-2219431D1*
X-209429D1*
X-227679Y-2213254D1*
X-239892Y-2201181D1*
X-245929Y-2188967D1*
X-251965Y-2170857D1*
Y-2140394D1*
X-245929Y-2122144D1*
X-239892Y-2110071D1*
X-227679Y-2097857D1*
X-209429Y-2091821D1*
X-166892D1*
X-303394Y-2091961D2*
X-370077D1*
X-333717Y-2140534D1*
X-351967D1*
X-364041Y-2146571D1*
X-370077Y-2152607D1*
X-376254Y-2170857D1*
Y-2182931D1*
X-370077Y-2201181D1*
X-358004Y-2213394D1*
X-339754Y-2219431D1*
X-321504D1*
X-303394Y-2213394D1*
X-297358Y-2207217D1*
X-291181Y-2195144D1*
X896914Y-2076975D2*
Y-2204584D1*
X854378D1*
X836128Y-2198407D1*
X823914Y-2186334D1*
X817878Y-2174121D1*
X811841Y-2156011D1*
Y-2125548D1*
X817878Y-2107298D1*
X823914Y-2095225D1*
X836128Y-2083011D1*
X854378Y-2076975D1*
X896914D1*
X711839Y-2204584D2*
Y-2077115D1*
X772626Y-2162048D1*
X681516D1*
X3914409Y-2264538D2*
D56*
X4016496Y-2303396D1*
X3914409Y-2342255D1*
X3977638Y-2386699D2*
Y-2444987D1*
X3967867D1*
X3958096Y-2440158D1*
X3953267Y-2435328D1*
X3948438Y-2425558D1*
Y-2410958D1*
X3953267Y-2401299D1*
X3963038Y-2391528D1*
X3977638Y-2386699D1*
X3987296D1*
X4001896Y-2391528D1*
X4011555Y-2401299D1*
X4016496Y-2410958D1*
Y-2425558D1*
X4011555Y-2435328D1*
X4001896Y-2444987D1*
X3948438Y-2489431D2*
X4016496D1*
X3977638D2*
X3963038Y-2494373D1*
X3953267Y-2504031D1*
X3948438Y-2513802D1*
Y-2528402D1*
X3963038Y-2626305D2*
X3953267Y-2621476D1*
X3948438Y-2606876D1*
Y-2592276D1*
X3953267Y-2577676D1*
X3963038Y-2572846D1*
X3972696Y-2577676D1*
X3977638Y-2587446D1*
X3982467Y-2611705D1*
X3987296Y-2621476D1*
X3997067Y-2626305D1*
X4001896D1*
X4011555Y-2621476D1*
X4016496Y-2606876D1*
Y-2592276D1*
X4011555Y-2577676D1*
X4001896Y-2572846D1*
X3914409Y-2670749D2*
X3919238Y-2675579D1*
X3914409Y-2680520D1*
X3909467Y-2675579D1*
X3914409Y-2670749D1*
X3948438Y-2675579D2*
X4016496D1*
X3948438Y-2749223D2*
X3953267Y-2739565D1*
X3963038Y-2729794D1*
X3977638Y-2724965D1*
X3987297D1*
X4001897Y-2729794D1*
X4011555Y-2739565D1*
X4016496Y-2749223D1*
X4016497Y-2763823D1*
X4011555Y-2773594D1*
X4001897Y-2783252D1*
X3987297Y-2788194D1*
X3977638D1*
X3963038Y-2783252D1*
X3953267Y-2773594D1*
X3948438Y-2763823D1*
Y-2749223D1*
Y-2832638D2*
X4016497D1*
X3967867D2*
X3953267Y-2847238D1*
X3948438Y-2857009D1*
Y-2871496D1*
X3953267Y-2881267D1*
X3967867Y-2886096D1*
X4016496D1*
X4183950Y-2261270D2*
D57*
X4179009Y-2271040D1*
X4164521Y-2285640D1*
X4266497Y-2285641D1*
X4164521Y-2375300D2*
Y-2326784D1*
X4208209Y-2321954D1*
X4203380Y-2326784D1*
X4198438Y-2341384D1*
Y-2355871D1*
X4203380Y-2370471D1*
X4213038Y-2380242D1*
X4227638Y-2385071D1*
X4237296D1*
X4251896Y-2380242D1*
X4261667Y-2370471D1*
X4266497Y-2355871D1*
Y-2341384D1*
X4261667Y-2326784D1*
X4256726Y-2321955D1*
X4247067Y-2317013D1*
X3914409Y-3508987D2*
D56*
X4016496D1*
X3914409Y-3440928D1*
X4016496D1*
X3948438Y-3611719D2*
X4016496D1*
X3963038D2*
X3953267Y-3602061D1*
X3948438Y-3592290D1*
Y-3577802D1*
X3953267Y-3568031D1*
X3963038Y-3558373D1*
X3977638Y-3553431D1*
X3987296D1*
X4001896Y-3558373D1*
X4011555Y-3568031D1*
X4016496Y-3577802D1*
Y-3592290D1*
X4011555Y-3602061D1*
X4001896Y-3611719D1*
X3948438Y-3656163D2*
X4016496D1*
X3967867D2*
X3953267Y-3670763D1*
X3948438Y-3680534D1*
Y-3695022D1*
X3953267Y-3704793D1*
X3967867Y-3709622D1*
X4016496D1*
X3967867D2*
X3953267Y-3724222D1*
X3948438Y-3733993D1*
Y-3748480D1*
X3953267Y-3758251D1*
X3967867Y-3763193D1*
X4016497D1*
X3977638Y-3807637D2*
Y-3865925D1*
X3967867D1*
X3958096Y-3861095D1*
X3953267Y-3856266D1*
X3948438Y-3846495D1*
Y-3831895D1*
X3953267Y-3822237D1*
X3963038Y-3812466D1*
X3977638Y-3807637D1*
X3987297D1*
X4001897Y-3812466D1*
X4011555Y-3822237D1*
X4016497Y-3831895D1*
Y-3846495D1*
X4011555Y-3856266D1*
X4001896Y-3865925D1*
X4179009Y-3329328D2*
D57*
X4169238Y-3319670D1*
X4164409Y-3305070D1*
Y-3285641D1*
X4169238Y-3271041D1*
X4179009Y-3261270D1*
X4188667D1*
X4198438Y-3266211D1*
X4203267Y-3271041D1*
X4208096Y-3280699D1*
X4217867Y-3309899D1*
X4222696Y-3319670D1*
X4227638Y-3324499D1*
X4237296Y-3329328D1*
X4251896D1*
X4261555Y-3319670D1*
X4266496Y-3305070D1*
Y-3285641D1*
X4261555Y-3271041D1*
X4251896Y-3261270D1*
X4164409Y-3360701D2*
X4266496D1*
X4217867D2*
X4203267Y-3375301D1*
X4198438Y-3385072D1*
Y-3399672D1*
X4203267Y-3409330D1*
X4217867Y-3414159D1*
X4266496D1*
X4198438Y-3445532D2*
X4247067D1*
X4261555Y-3450361D1*
X4266496Y-3460132D1*
Y-3474732D1*
X4261555Y-3484390D1*
X4247067Y-3498990D1*
X4198438D2*
X4266496D1*
X4164409Y-3544963D2*
X4247067D1*
X4261555Y-3549792D1*
X4266496Y-3559563D1*
Y-3569221D1*
X4198438Y-3530363D2*
Y-3564392D1*
X4164409Y-3615194D2*
X4247067D1*
X4261555Y-3620023D1*
X4266496Y-3629794D1*
Y-3639452D1*
X4198438Y-3600594D2*
Y-3634623D1*
X4227638Y-3670825D2*
Y-3729112D1*
X4217867D1*
X4208097Y-3724283D1*
X4203267Y-3719454D1*
X4198438Y-3709683D1*
Y-3695083D1*
X4203267Y-3685425D1*
X4213038Y-3675654D1*
X4227638Y-3670825D1*
X4237297D1*
X4251897Y-3675654D1*
X4261555Y-3685425D1*
X4266497Y-3695083D1*
Y-3709683D1*
X4261555Y-3719454D1*
X4251897Y-3729112D1*
X4198438Y-3760485D2*
X4266497D1*
X4227638D2*
X4213038Y-3765426D1*
X4203267Y-3775085D1*
X4198438Y-3784856D1*
Y-3799456D1*
X3709807Y-2469704D2*
D58*
X3695151Y-2462460D1*
X3687907Y-2440560D1*
Y-2418660D1*
X3695151Y-2396760D1*
X3709807Y-2389516D1*
X3724295Y-2396760D1*
X3731707Y-2411416D1*
X3738951Y-2447804D1*
X3746195Y-2462460D1*
X3760851Y-2469704D1*
X3768095D1*
X3782582Y-2462460D1*
X3789995Y-2440560D1*
Y-2418660D1*
X3782582Y-2396760D1*
X3768095Y-2389516D1*
X3687907Y-2516763D2*
X3789995D1*
X3717051D2*
X3695151Y-2538663D1*
X3687907Y-2553319D1*
Y-2575050D1*
X3695151Y-2589706D1*
X3717051Y-2596950D1*
X3789995D1*
X3717051D2*
X3695151Y-2618850D1*
X3687907Y-2633506D1*
Y-2655238D1*
X3695151Y-2669894D1*
X3717051Y-2677306D1*
X3789995D1*
X3687907Y-2811797D2*
X3789995D1*
X3709807D2*
X3695151Y-2797309D1*
X3687907Y-2782653D1*
Y-2760921D1*
X3695151Y-2746265D1*
X3709807Y-2731777D1*
X3731707Y-2724365D1*
X3746195D1*
X3768095Y-2731778D1*
X3782582Y-2746265D1*
X3789995Y-2760921D1*
Y-2782653D1*
X3782582Y-2797309D1*
X3768095Y-2811797D1*
X3687907Y-2858856D2*
X3789995D1*
X3731707D2*
X3709807Y-2866268D1*
X3695151Y-2880756D1*
X3687907Y-2895412D1*
Y-2917312D1*
X3636863Y-2986271D2*
X3760851D1*
X3782582Y-2993514D1*
X3789995Y-3008171D1*
Y-3022658D1*
X3687907Y-2964371D2*
Y-3015414D1*
X3709807Y-3149905D2*
X3695151Y-3142661D1*
X3687907Y-3120761D1*
Y-3098861D1*
X3695151Y-3076961D1*
X3709807Y-3069717D1*
X3724295Y-3076961D1*
X3731707Y-3091617D1*
X3738951Y-3128005D1*
X3746195Y-3142661D1*
X3760851Y-3149905D1*
X3768095D1*
X3782582Y-3142661D1*
X3789995Y-3120761D1*
Y-3098861D1*
X3782582Y-3076961D1*
X3768095Y-3069717D1*
X3789995Y-3269907D2*
X3637032D1*
X3738951Y-3196964D1*
Y-3306295D1*
X3636863Y-3353354D2*
X3789995D1*
X3717051D2*
X3695151Y-3375254D1*
X3687907Y-3389910D1*
Y-3411810D1*
X3695151Y-3426298D1*
X3717051Y-3433542D1*
X3789995D1*
X3687907Y-3516988D2*
X3695151Y-3502500D1*
X3709807Y-3487844D1*
X3731707Y-3480600D1*
X3746195D1*
X3768095Y-3487844D1*
X3782582Y-3502500D1*
X3789995Y-3516988D1*
Y-3538888D1*
X3782582Y-3553544D1*
X3768095Y-3568032D1*
X3746195Y-3575444D1*
X3731707D1*
X3709807Y-3568032D1*
X3695151Y-3553544D1*
X3687907Y-3538888D1*
Y-3516988D1*
Y-3622503D2*
X3789995D1*
X3717051D2*
X3695151Y-3644403D1*
X3687907Y-3659059D1*
Y-3680791D1*
X3695151Y-3695447D1*
X3717051Y-3702691D1*
X3789995D1*
X3717051D2*
X3695151Y-3724591D1*
X3687907Y-3739247D1*
Y-3760978D1*
X3695151Y-3775634D1*
X3717051Y-3783047D1*
X3789995D1*
X3731707Y-3830106D2*
Y-3917537D1*
X3717051D1*
X3702395Y-3910293D1*
X3695151Y-3903049D1*
X3687907Y-3888393D1*
Y-3866493D1*
X3695151Y-3852006D1*
X3709807Y-3837349D1*
X3731707Y-3830106D1*
X3746195D1*
X3768095Y-3837349D1*
X3782582Y-3852006D1*
X3789995Y-3866493D1*
Y-3888393D1*
X3782582Y-3903049D1*
X3768095Y-3917537D1*
M02*
