M48
METRIC,0000.00
T01C0.5
T02C0.61
T03C0.7
T04C0.9
T05C1.0
T06C1.2
%
T01
X+002673Y-003227
X+003518Y-003248
T02
X+003841Y-003360
T03
X+001670Y-002320
X+001670Y-002447
X+001670Y-002574
X+001670Y-002899
X+001670Y-003026
X+001670Y-003153
T04
X+001163Y-001947
X+000403Y-001947
X+000123Y-001951
X-000637Y-001951
X+000982Y-004106
T05
X+000428Y-003217G85X+000378Y-003217
X+000148Y-003481G85X+000098Y-003481
X-000612Y-003221G85X-000662Y-003221
X+001188Y-003477G85X+001138Y-003477
T06
X+003130Y-003919
X+001833Y-003919
X+001919Y-001897
X+002173Y-001897
X+002427Y-001897
X+002681Y-001897
X+002935Y-001897
X+003189Y-001897
X+003443Y-001897
X+003697Y-001897
X+003951Y-001897
X+004205Y-001897
X+004459Y-001897
X+004713Y-001897
X+004737Y-002211
X+004737Y-002461
X+004727Y-003701
X+004737Y-004201
T00
M30
