G04 DipTrace 3.3.1.3*
G04 TopDimension.gbr*
%MOMM*%
G04 #@! TF.FileFunction,Drawing,Top*
G04 #@! TF.Part,Single*
%ADD13C,0.035*%
%ADD57C,0.15686*%
%FSLAX35Y35*%
G04*
G71*
G90*
G75*
G01*
G04 TopDimension*
%LPD*%
X-800000Y-1743120D2*
D13*
X1015880D1*
X-800000Y-4343100D2*
X1015880D1*
X965880Y-3043110D2*
Y-1843120D1*
G36*
Y-1743120D2*
X985880Y-1843120D1*
X945880D1*
X965880Y-1743120D1*
G37*
Y-3043110D2*
D13*
Y-4243100D1*
G36*
Y-4343100D2*
X945880Y-4243100D1*
X985880D1*
X965880Y-4343100D1*
G37*
X-800000D2*
D13*
Y-4514863D1*
X4900000Y-4343100D2*
Y-4514863D1*
X2050000Y-4464863D2*
X-700000D1*
G36*
X-800000D2*
X-700000Y-4444863D1*
Y-4484863D1*
X-800000Y-4464863D1*
G37*
X2050000D2*
D13*
X4800000D1*
G36*
X4900000D2*
X4800000Y-4484863D1*
Y-4444863D1*
X4900000Y-4464863D1*
G37*
X-800000Y-1743120D2*
D13*
X-1762017D1*
X-800000Y-4343100D2*
X-1762017D1*
X-1712017Y-3043110D2*
Y-1843120D1*
G36*
Y-1743120D2*
X-1692017Y-1843120D1*
X-1732017D1*
X-1712017Y-1743120D1*
G37*
Y-3043110D2*
D13*
Y-4243100D1*
G36*
Y-4343100D2*
X-1732017Y-4243100D1*
X-1692017D1*
X-1712017Y-4343100D1*
G37*
X1832913Y-3919347D2*
D13*
Y-4809440D1*
X3129780Y-3919347D2*
Y-4809440D1*
X2481347Y-4759440D2*
X1932913D1*
G36*
X1832913D2*
X1932913Y-4739440D1*
Y-4779440D1*
X1832913Y-4759440D1*
G37*
X2481347D2*
D13*
X3029780D1*
G36*
X3129780D2*
X3029780Y-4779440D1*
Y-4739440D1*
X3129780Y-4759440D1*
G37*
X-800000Y-4343100D2*
D13*
Y-5244923D1*
X766673Y-4192523D2*
Y-5244923D1*
X-16663Y-5194923D2*
X-700000D1*
G36*
X-800000D2*
X-700000Y-5174923D1*
Y-5214923D1*
X-800000Y-5194923D1*
G37*
X-16663D2*
D13*
X666673D1*
G36*
X766673D2*
X666673Y-5214923D1*
Y-5174923D1*
X766673Y-5194923D1*
G37*
X4900000Y-1743120D2*
D13*
Y-5673543D1*
X1293543Y-1616753D2*
Y-5673543D1*
X3096772Y-5623543D2*
X4800000D1*
G36*
X4900000D2*
X4800000Y-5643543D1*
Y-5603543D1*
X4900000Y-5623543D1*
G37*
X3096772D2*
D13*
X1393543D1*
G36*
X1293543D2*
X1393543Y-5603543D1*
Y-5643543D1*
X1293543Y-5623543D1*
G37*
X4727267Y-3700713D2*
D13*
X2385197D1*
X4737267Y-4200713D2*
X2385197D1*
X2435197Y-3950713D2*
Y-3800713D1*
G36*
Y-3700713D2*
X2455197Y-3800713D1*
X2415197D1*
X2435197Y-3700713D1*
G37*
Y-3950713D2*
D13*
Y-4100713D1*
G36*
Y-4200713D2*
X2415197Y-4100713D1*
X2455197D1*
X2435197Y-4200713D1*
G37*
X1832913Y-3919347D2*
D13*
X3421277D1*
X-800000Y-4343100D2*
X3421277D1*
X3371277Y-3919347D2*
Y-4343100D1*
Y-3769347D2*
Y-3819347D1*
G36*
Y-3919347D2*
X3351277Y-3819347D1*
X3391277D1*
X3371277Y-3919347D1*
G37*
Y-4493100D2*
D13*
Y-4443100D1*
G36*
Y-4343100D2*
X3391277Y-4443100D1*
X3351277D1*
X3371277Y-4343100D1*
G37*
X-800000D2*
D13*
Y-6481117D1*
X6387267Y-4310713D2*
Y-6481117D1*
X2793633Y-6431117D2*
X-700000D1*
G36*
X-800000D2*
X-700000Y-6411117D1*
Y-6451117D1*
X-800000Y-6431117D1*
G37*
X2793633D2*
D13*
X6287267D1*
G36*
X6387267D2*
X6287267Y-6451117D1*
Y-6411117D1*
X6387267Y-6431117D1*
G37*
X1074612Y-2974621D2*
D57*
X1079441D1*
X1089212Y-2979450D1*
X1094041Y-2984279D1*
X1098871Y-2994050D1*
Y-3013479D1*
X1094041Y-3023138D1*
X1089212Y-3027967D1*
X1079441Y-3032908D1*
X1069783D1*
X1060012Y-3027967D1*
X1045525Y-3018308D1*
X996895Y-2969679D1*
Y-3037738D1*
X1084383Y-3127398D2*
X1094041Y-3122569D1*
X1098871Y-3107969D1*
Y-3098310D1*
X1094041Y-3083710D1*
X1079441Y-3073939D1*
X1055183Y-3069110D1*
X1030925D1*
X1011495Y-3073939D1*
X1001725Y-3083710D1*
X996895Y-3098310D1*
Y-3103139D1*
X1001725Y-3117627D1*
X1011495Y-3127398D1*
X1026095Y-3132227D1*
X1030925D1*
X1045525Y-3127398D1*
X1055183Y-3117627D1*
X1060012Y-3103139D1*
Y-3098310D1*
X1055183Y-3083710D1*
X1045525Y-3073939D1*
X1030925Y-3069110D1*
X2032386Y-4331873D2*
X1983869D1*
X1979040Y-4375560D1*
X1983869Y-4370731D1*
X1998469Y-4365790D1*
X2012957D1*
X2027557Y-4370731D1*
X2037328Y-4380390D1*
X2042157Y-4394990D1*
Y-4404648D1*
X2037328Y-4419248D1*
X2027557Y-4429019D1*
X2012957Y-4433848D1*
X1998469D1*
X1983869Y-4429019D1*
X1979040Y-4424077D1*
X1974098Y-4414419D1*
X2092959Y-4433848D2*
X2141588Y-4331873D1*
X2073529D1*
X-1820749Y-3111599D2*
X-1825578D1*
X-1835349Y-3106770D1*
X-1840178Y-3101941D1*
X-1845007Y-3092170D1*
Y-3072741D1*
X-1840178Y-3063082D1*
X-1835349Y-3058253D1*
X-1825578Y-3053312D1*
X-1815920D1*
X-1806149Y-3058253D1*
X-1791661Y-3067912D1*
X-1743032Y-3116541D1*
Y-3048482D1*
X-1830520Y-2958822D2*
X-1840178Y-2963651D1*
X-1845007Y-2978251D1*
Y-2987910D1*
X-1840178Y-3002510D1*
X-1825578Y-3012281D1*
X-1801320Y-3017110D1*
X-1777061D1*
X-1757632Y-3012281D1*
X-1747861Y-3002510D1*
X-1743032Y-2987910D1*
Y-2983081D1*
X-1747861Y-2968593D1*
X-1757632Y-2958822D1*
X-1772232Y-2953993D1*
X-1777061D1*
X-1791661Y-2958822D1*
X-1801320Y-2968593D1*
X-1806149Y-2983081D1*
Y-2987910D1*
X-1801320Y-3002510D1*
X-1791661Y-3012281D1*
X-1777061Y-3017110D1*
X2309701Y-4645879D2*
X2319472Y-4640937D1*
X2334072Y-4626449D1*
Y-4728425D1*
X2370386Y-4650708D2*
Y-4645879D1*
X2375215Y-4636108D1*
X2380044Y-4631279D1*
X2389815Y-4626449D1*
X2409244D1*
X2418903Y-4631279D1*
X2423732Y-4636108D1*
X2428673Y-4645879D1*
Y-4655537D1*
X2423732Y-4665308D1*
X2414073Y-4679795D1*
X2365444Y-4728425D1*
X2433503D1*
X2469704Y-4718654D2*
X2464875Y-4723595D1*
X2469704Y-4728425D1*
X2474646Y-4723595D1*
X2469704Y-4718654D1*
X2569248Y-4660366D2*
X2564306Y-4674966D1*
X2554648Y-4684737D1*
X2540048Y-4689566D1*
X2535219D1*
X2520619Y-4684737D1*
X2510960Y-4674966D1*
X2506019Y-4660366D1*
Y-4655537D1*
X2510960Y-4640937D1*
X2520619Y-4631279D1*
X2535219Y-4626449D1*
X2540048D1*
X2554648Y-4631279D1*
X2564306Y-4640937D1*
X2569248Y-4660366D1*
Y-4684737D1*
X2564306Y-4708995D1*
X2554648Y-4723595D1*
X2540048Y-4728425D1*
X2530389D1*
X2515789Y-4723595D1*
X2510960Y-4713825D1*
X2620050Y-4728425D2*
X2668679Y-4626449D1*
X2600620D1*
X-188253Y-5081362D2*
X-178482Y-5076420D1*
X-163882Y-5061933D1*
Y-5163908D1*
X-74222Y-5061933D2*
X-122739D1*
X-127568Y-5105620D1*
X-122739Y-5100791D1*
X-108139Y-5095850D1*
X-93651D1*
X-79051Y-5100791D1*
X-69280Y-5110450D1*
X-64451Y-5125050D1*
Y-5134708D1*
X-69280Y-5149308D1*
X-79051Y-5159079D1*
X-93651Y-5163908D1*
X-108139D1*
X-122739Y-5159079D1*
X-127568Y-5154137D1*
X-132510Y-5144479D1*
X-28249Y-5154137D2*
X-33079Y-5159079D1*
X-28249Y-5163908D1*
X-23308Y-5159079D1*
X-28249Y-5154137D1*
X66352Y-5076420D2*
X61523Y-5066762D1*
X46923Y-5061933D1*
X37265D1*
X22665Y-5066762D1*
X12894Y-5081362D1*
X8065Y-5105620D1*
Y-5129879D1*
X12894Y-5149308D1*
X22665Y-5159079D1*
X37265Y-5163908D1*
X42094D1*
X56582Y-5159079D1*
X66352Y-5149308D1*
X71182Y-5134708D1*
Y-5129879D1*
X66352Y-5115279D1*
X56582Y-5105620D1*
X42094Y-5100791D1*
X37265D1*
X22665Y-5105620D1*
X12894Y-5115279D1*
X8065Y-5129879D1*
X121983Y-5163908D2*
X170613Y-5061933D1*
X102554D1*
X2915580Y-5490553D2*
X2968926D1*
X2939838Y-5529411D1*
X2954438D1*
X2964097Y-5534240D1*
X2968926Y-5539070D1*
X2973867Y-5553670D1*
Y-5563328D1*
X2968926Y-5577928D1*
X2959267Y-5587699D1*
X2944667Y-5592528D1*
X2930067D1*
X2915580Y-5587699D1*
X2910750Y-5582757D1*
X2905809Y-5573099D1*
X3063528Y-5505040D2*
X3058698Y-5495382D1*
X3044098Y-5490553D1*
X3034440D1*
X3019840Y-5495382D1*
X3010069Y-5509982D1*
X3005240Y-5534240D1*
Y-5558499D1*
X3010069Y-5577928D1*
X3019840Y-5587699D1*
X3034440Y-5592528D1*
X3039269D1*
X3053757Y-5587699D1*
X3063528Y-5577928D1*
X3068357Y-5563328D1*
Y-5558499D1*
X3063528Y-5543899D1*
X3053757Y-5534240D1*
X3039269Y-5529411D1*
X3034440D1*
X3019840Y-5534240D1*
X3010069Y-5543899D1*
X3005240Y-5558499D1*
X3104559Y-5582757D2*
X3099729Y-5587699D1*
X3104559Y-5592528D1*
X3109500Y-5587699D1*
X3104559Y-5582757D1*
X3170073Y-5490553D2*
X3155473Y-5495382D1*
X3145702Y-5509982D1*
X3140873Y-5534240D1*
Y-5548840D1*
X3145702Y-5573099D1*
X3155473Y-5587699D1*
X3170073Y-5592528D1*
X3179731D1*
X3194331Y-5587699D1*
X3203990Y-5573099D1*
X3208931Y-5548840D1*
Y-5534240D1*
X3203990Y-5509982D1*
X3194331Y-5495382D1*
X3179731Y-5490553D1*
X3170073D1*
X3203990Y-5509982D2*
X3145702Y-5573099D1*
X3298591Y-5505040D2*
X3293762Y-5495382D1*
X3279162Y-5490553D1*
X3269504D1*
X3254904Y-5495382D1*
X3245133Y-5509982D1*
X3240304Y-5534240D1*
Y-5558499D1*
X3245133Y-5577928D1*
X3254904Y-5587699D1*
X3269504Y-5592528D1*
X3274333D1*
X3288821Y-5587699D1*
X3298591Y-5577928D1*
X3303421Y-5563328D1*
Y-5558499D1*
X3298591Y-5543899D1*
X3288821Y-5534240D1*
X3274333Y-5529411D1*
X3269504D1*
X3254904Y-5534240D1*
X3245133Y-5543899D1*
X3240304Y-5558499D1*
X2302206Y-3918612D2*
Y-3967129D1*
X2345894Y-3971958D1*
X2341064Y-3967129D1*
X2336123Y-3952529D1*
Y-3938041D1*
X2341064Y-3923441D1*
X2350723Y-3913670D1*
X2365323Y-3908841D1*
X2374981D1*
X2389581Y-3913670D1*
X2399352Y-3923441D1*
X2404181Y-3938041D1*
Y-3952529D1*
X2399352Y-3967129D1*
X2394411Y-3971958D1*
X2384752Y-3976899D1*
X3402292Y-4028835D2*
X3504267D1*
X3436321Y-3980205D1*
Y-4053093D1*
X3412063Y-4089295D2*
X3407121Y-4084466D1*
X3402292Y-4089295D1*
X3407121Y-4094236D1*
X3412063Y-4089295D1*
X3480009Y-4130550D2*
X3484838D1*
X3494609Y-4135380D1*
X3499438Y-4140209D1*
X3504267Y-4149980D1*
Y-4169409D1*
X3499438Y-4179067D1*
X3494609Y-4183897D1*
X3484838Y-4188838D1*
X3475180D1*
X3465409Y-4183897D1*
X3450921Y-4174238D1*
X3402292Y-4125609D1*
Y-4193667D1*
Y-4273669D2*
X3504267D1*
X3436321Y-4225040D1*
Y-4297928D1*
X2639058Y-6400101D2*
X2687688Y-6298126D1*
X2619629D1*
X2719060Y-6317555D2*
X2728831Y-6312614D1*
X2743431Y-6298126D1*
Y-6400101D1*
X2779633Y-6390331D2*
X2774803Y-6395272D1*
X2779633Y-6400101D1*
X2784574Y-6395272D1*
X2779633Y-6390331D1*
X2840205Y-6298126D2*
X2825717Y-6302955D1*
X2820776Y-6312614D1*
Y-6322384D1*
X2825717Y-6332043D1*
X2835376Y-6336984D1*
X2854805Y-6341814D1*
X2869405Y-6346643D1*
X2879064Y-6356414D1*
X2883893Y-6366072D1*
Y-6380672D1*
X2879064Y-6390331D1*
X2874234Y-6395272D1*
X2859634Y-6400101D1*
X2840205D1*
X2825717Y-6395272D1*
X2820776Y-6390331D1*
X2815947Y-6380672D1*
Y-6366072D1*
X2820776Y-6356414D1*
X2830547Y-6346643D1*
X2845034Y-6341814D1*
X2864464Y-6336984D1*
X2874234Y-6332043D1*
X2879064Y-6322384D1*
Y-6312614D1*
X2874234Y-6302955D1*
X2859634Y-6298126D1*
X2840205D1*
X2934695Y-6400101D2*
X2983324Y-6298126D1*
X2915265D1*
M02*
