G04 DipTrace 3.3.1.3*
G04 TopMask.gbr*
%MOMM*%
G04 #@! TF.FileFunction,Soldermask,Top*
G04 #@! TF.Part,Single*
%AMOUTLINE1*
4,1,20,
1.30179,0.0,
1.2361,-0.34561,
1.04752,-0.65404,
0.75802,-0.89529,
0.39739,-1.04842,
0.0,-1.10087,
-0.39739,-1.04842,
-0.75802,-0.89529,
-1.04752,-0.65404,
-1.2361,-0.34561,
-1.30179,0.0,
-1.2361,0.34561,
-1.04752,0.65404,
-0.75802,0.89529,
-0.39739,1.04842,
0.0,1.10087,
0.39739,1.04842,
0.75802,0.89529,
1.04752,0.65404,
1.2361,0.34561,
1.30179,0.0,
0*%
%AMOUTLINE4*
4,1,8,
-0.79142,0.6,
-1.1,0.29142,
-1.1,-0.29142,
-0.79142,-0.6,
0.79142,-0.6,
1.1,-0.29142,
1.1,0.29142,
0.79142,0.6,
-0.79142,0.6,
0*%
%ADD36R,2.2X5.2*%
%ADD38R,2.2X4.2*%
%ADD42O,2.2X1.2*%
%ADD44R,2.0X1.8*%
%ADD46R,1.9X2.4*%
%ADD48R,1.9X2.2*%
%ADD50C,1.7*%
%ADD51C,2.2*%
%ADD53C,2.2*%
%ADD60OUTLINE1*%
%ADD63OUTLINE4*%
%FSLAX35Y35*%
G04*
G71*
G90*
G75*
G01*
G04 TopMask*
%LPD*%
D53*
X3129780Y-3919347D3*
X1832913D3*
D51*
X4737267Y-2210713D3*
Y-2460713D3*
Y-4200713D3*
X4727267Y-3700713D3*
D60*
X402627Y-3217027D3*
X1162627Y-3477027D3*
D50*
Y-1947027D3*
X402627D3*
D60*
X-636780Y-3221190D3*
X123220Y-3481190D3*
D50*
Y-1951190D3*
X-636780D3*
D48*
X1918897Y-1896997D3*
D53*
X2172897D3*
X2426897D3*
X2680897D3*
X2934897D3*
X3188897D3*
X3442897D3*
X3696897D3*
X3950897D3*
X4204897D3*
X4458897D3*
X4712897D3*
D46*
X2674980Y-2372193D3*
X2420980D3*
Y-3222193D3*
X2674980D3*
X3529427Y-2390013D3*
X3275427D3*
Y-3240013D3*
X3529427D3*
D44*
X2968343Y-2246883D3*
Y-2526883D3*
X3914113Y-2222097D3*
Y-2502097D3*
D63*
X1669773Y-2319910D3*
D42*
Y-2446910D3*
Y-2573910D3*
D63*
Y-2899253D3*
D42*
Y-3026253D3*
Y-3153253D3*
D44*
X2132487Y-2656610D3*
Y-2936610D3*
X2969360Y-3409870D3*
Y-3129870D3*
D38*
X3666147Y-4154993D3*
X4016147D3*
X4366147D3*
D36*
X-503260Y-4101533D3*
X-3260D3*
X496740D3*
X996740D3*
X1496740D3*
D50*
X982106Y-4106196D3*
M02*
